<mxfile host="app.diagrams.net" modified="2023-05-25T15:46:29.916Z" agent="Mozilla/5.0 (Macintosh; Intel Mac OS X 10_15_7) AppleWebKit/537.36 (KHTML, like Gecko) Chrome/113.0.0.0 Safari/537.36" etag="bh7vmghvElGhvNIuyfQJ" version="21.3.2" type="github">
  <diagram name="Page-1" id="wnrHIdruKklxKll4JgNz">
    <mxGraphModel dx="954" dy="1570" grid="1" gridSize="10" guides="1" tooltips="1" connect="1" arrows="1" fold="1" page="1" pageScale="1" pageWidth="850" pageHeight="1100" math="0" shadow="0">
      <root>
        <mxCell id="0" />
        <mxCell id="1" parent="0" />
        <mxCell id="Npw1RuFwo9IliVPyghso-11" style="edgeStyle=orthogonalEdgeStyle;rounded=0;orthogonalLoop=1;jettySize=auto;html=1;entryX=0.5;entryY=1;entryDx=0;entryDy=0;labelBackgroundColor=none;strokeColor=#E07A5F;fontColor=default;" parent="1" source="Npw1RuFwo9IliVPyghso-1" target="Npw1RuFwo9IliVPyghso-2" edge="1">
          <mxGeometry relative="1" as="geometry" />
        </mxCell>
        <mxCell id="Npw1RuFwo9IliVPyghso-1" value="Client Smart Contract" style="whiteSpace=wrap;html=1;aspect=fixed;labelBackgroundColor=none;fillColor=#F2CC8F;strokeColor=#E07A5F;fontColor=#393C56;fontStyle=1" parent="1" vertex="1">
          <mxGeometry x="425" y="155" width="65" height="65" as="geometry" />
        </mxCell>
        <mxCell id="Npw1RuFwo9IliVPyghso-10" style="edgeStyle=orthogonalEdgeStyle;rounded=0;orthogonalLoop=1;jettySize=auto;html=1;exitX=0.25;exitY=0;exitDx=0;exitDy=0;entryX=0.5;entryY=0;entryDx=0;entryDy=0;labelBackgroundColor=none;strokeColor=#E07A5F;fontColor=default;" parent="1" source="Npw1RuFwo9IliVPyghso-2" target="Npw1RuFwo9IliVPyghso-1" edge="1">
          <mxGeometry relative="1" as="geometry" />
        </mxCell>
        <mxCell id="Npw1RuFwo9IliVPyghso-2" value="Oracles Smart Contract" style="whiteSpace=wrap;html=1;aspect=fixed;labelBackgroundColor=none;fillColor=#F2CC8F;strokeColor=#E07A5F;fontColor=#393C56;fontStyle=1" parent="1" vertex="1">
          <mxGeometry x="280" y="70" width="70" height="70" as="geometry" />
        </mxCell>
        <mxCell id="Npw1RuFwo9IliVPyghso-12" value="Step1: create job" style="text;html=1;align=center;verticalAlign=middle;resizable=0;points=[];autosize=1;strokeColor=none;fillColor=none;labelBackgroundColor=none;fontColor=#0000FF;fontStyle=3" parent="1" vertex="1">
          <mxGeometry x="310" y="160" width="120" height="30" as="geometry" />
        </mxCell>
        <mxCell id="Npw1RuFwo9IliVPyghso-13" value="Link token Smart Contract" style="whiteSpace=wrap;html=1;aspect=fixed;labelBackgroundColor=none;fillColor=#F2CC8F;strokeColor=#E07A5F;fontColor=#393C56;fontStyle=1" parent="1" vertex="1">
          <mxGeometry x="495" y="60" width="65" height="65" as="geometry" />
        </mxCell>
        <mxCell id="Npw1RuFwo9IliVPyghso-14" value="Event announcement" style="ellipse;whiteSpace=wrap;html=1;aspect=fixed;labelBackgroundColor=none;fillColor=#F2CC8F;strokeColor=#E07A5F;fontColor=#000000;fontStyle=1" parent="1" vertex="1">
          <mxGeometry x="20" y="50" width="90" height="90" as="geometry" />
        </mxCell>
        <mxCell id="Npw1RuFwo9IliVPyghso-16" value="Step 2: Event notification" style="text;html=1;align=center;verticalAlign=middle;resizable=0;points=[];autosize=1;strokeColor=none;fillColor=none;labelBackgroundColor=none;fontColor=#0000FF;fontStyle=3" parent="1" vertex="1">
          <mxGeometry x="95" y="60" width="170" height="30" as="geometry" />
        </mxCell>
        <mxCell id="Npw1RuFwo9IliVPyghso-17" value="Chainlink Node&lt;br&gt;Job 1" style="rhombus;whiteSpace=wrap;html=1;labelBackgroundColor=none;fillColor=#F2CC8F;strokeColor=#E07A5F;fontColor=#393C56;fontStyle=1" parent="1" vertex="1">
          <mxGeometry x="50" y="320" width="80" height="80" as="geometry" />
        </mxCell>
        <mxCell id="Npw1RuFwo9IliVPyghso-18" value="Chainlink Node&lt;br&gt;Job 2" style="rhombus;whiteSpace=wrap;html=1;labelBackgroundColor=none;fillColor=#F2CC8F;strokeColor=#E07A5F;fontColor=#393C56;fontStyle=1" parent="1" vertex="1">
          <mxGeometry x="160" y="320" width="80" height="80" as="geometry" />
        </mxCell>
        <mxCell id="Npw1RuFwo9IliVPyghso-19" value="Chainlink Node&lt;br&gt;Job 3" style="rhombus;whiteSpace=wrap;html=1;labelBackgroundColor=none;fillColor=#F2CC8F;strokeColor=#E07A5F;fontColor=#393C56;fontStyle=1" parent="1" vertex="1">
          <mxGeometry x="270" y="320" width="80" height="80" as="geometry" />
        </mxCell>
        <mxCell id="Npw1RuFwo9IliVPyghso-20" value="Step 6: Notify result" style="text;html=1;align=center;verticalAlign=middle;resizable=0;points=[];autosize=1;strokeColor=none;fillColor=none;labelBackgroundColor=none;fontColor=#0000FF;fontStyle=3" parent="1" vertex="1">
          <mxGeometry x="310" y="30" width="140" height="30" as="geometry" />
        </mxCell>
        <mxCell id="Npw1RuFwo9IliVPyghso-31" value="Chainlink Nodes" style="shape=umlFrame;whiteSpace=wrap;html=1;pointerEvents=0;strokeColor=#E07A5F;fontColor=#393C56;fillColor=#F2CC8F;fontStyle=1" parent="1" vertex="1">
          <mxGeometry x="30" y="280" width="330" height="150" as="geometry" />
        </mxCell>
        <mxCell id="Npw1RuFwo9IliVPyghso-36" value="" style="edgeStyle=none;orthogonalLoop=1;jettySize=auto;html=1;rounded=0;strokeColor=#E07A5F;fontColor=#393C56;fillColor=#F2CC8F;entryX=0.124;entryY=-0.03;entryDx=0;entryDy=0;entryPerimeter=0;" parent="1" target="Npw1RuFwo9IliVPyghso-31" edge="1">
          <mxGeometry width="100" relative="1" as="geometry">
            <mxPoint x="70" y="140" as="sourcePoint" />
            <mxPoint x="80" y="250" as="targetPoint" />
            <Array as="points" />
          </mxGeometry>
        </mxCell>
        <mxCell id="Npw1RuFwo9IliVPyghso-37" value="Step 3: Send job" style="text;html=1;align=center;verticalAlign=middle;resizable=0;points=[];autosize=1;strokeColor=none;fillColor=none;fontColor=#0000FF;rotation=90;fontStyle=3" parent="1" vertex="1">
          <mxGeometry x="-25" y="198" width="120" height="30" as="geometry" />
        </mxCell>
        <mxCell id="Npw1RuFwo9IliVPyghso-40" value="External APIs" style="shape=datastore;whiteSpace=wrap;html=1;strokeColor=#E07A5F;fontColor=#393C56;fillColor=#F2CC8F;fontStyle=1" parent="1" vertex="1">
          <mxGeometry x="530" y="270" width="60" height="60" as="geometry" />
        </mxCell>
        <mxCell id="Npw1RuFwo9IliVPyghso-41" value="External APIs" style="shape=datastore;whiteSpace=wrap;html=1;strokeColor=#E07A5F;fontColor=#393C56;fillColor=#F2CC8F;fontStyle=1" parent="1" vertex="1">
          <mxGeometry x="530" y="360" width="60" height="60" as="geometry" />
        </mxCell>
        <mxCell id="Npw1RuFwo9IliVPyghso-42" value="External APIs" style="shape=datastore;whiteSpace=wrap;html=1;strokeColor=#E07A5F;fontColor=#393C56;fillColor=#F2CC8F;fontStyle=1" parent="1" vertex="1">
          <mxGeometry x="620" y="320" width="60" height="60" as="geometry" />
        </mxCell>
        <mxCell id="Npw1RuFwo9IliVPyghso-43" value="" style="endArrow=classic;html=1;rounded=0;strokeColor=#E07A5F;fontColor=#393C56;fillColor=#F2CC8F;entryX=0;entryY=0.5;entryDx=0;entryDy=0;entryPerimeter=0;" parent="1" edge="1">
          <mxGeometry width="50" height="50" relative="1" as="geometry">
            <mxPoint x="360" y="360" as="sourcePoint" />
            <mxPoint x="490" y="360" as="targetPoint" />
          </mxGeometry>
        </mxCell>
        <mxCell id="Npw1RuFwo9IliVPyghso-51" value="Step 4: Execute Job" style="text;html=1;align=center;verticalAlign=middle;resizable=0;points=[];autosize=1;strokeColor=none;fillColor=none;fontColor=#0000FF;fontStyle=3" parent="1" vertex="1">
          <mxGeometry x="355" y="330" width="140" height="30" as="geometry" />
        </mxCell>
        <mxCell id="Npw1RuFwo9IliVPyghso-54" value="" style="endArrow=classic;html=1;rounded=0;strokeColor=#E07A5F;fontColor=#393C56;fillColor=#F2CC8F;entryX=0;entryY=1;entryDx=0;entryDy=0;" parent="1" target="Npw1RuFwo9IliVPyghso-2" edge="1">
          <mxGeometry width="50" height="50" relative="1" as="geometry">
            <mxPoint x="160" y="280" as="sourcePoint" />
            <mxPoint x="210" y="230" as="targetPoint" />
          </mxGeometry>
        </mxCell>
        <mxCell id="Npw1RuFwo9IliVPyghso-55" value="Step 5: Send result" style="text;html=1;align=center;verticalAlign=middle;resizable=0;points=[];autosize=1;strokeColor=none;fillColor=none;fontColor=#0000FF;rotation=0;fontStyle=3" parent="1" vertex="1">
          <mxGeometry x="100" y="190" width="130" height="30" as="geometry" />
        </mxCell>
        <mxCell id="Npw1RuFwo9IliVPyghso-61" value="" style="rounded=1;whiteSpace=wrap;html=1;absoluteArcSize=1;arcSize=14;strokeWidth=2;strokeColor=#E07A5F;fontColor=#393C56;fillColor=none;fontStyle=0" parent="1" vertex="1">
          <mxGeometry x="260" y="28" width="345" height="200" as="geometry" />
        </mxCell>
        <mxCell id="Npw1RuFwo9IliVPyghso-62" value="" style="endArrow=classic;startArrow=classic;html=1;rounded=0;strokeColor=#E07A5F;fontColor=#393C56;fillColor=#F2CC8F;" parent="1" edge="1">
          <mxGeometry width="50" height="50" relative="1" as="geometry">
            <mxPoint x="490" y="180" as="sourcePoint" />
            <mxPoint x="540" y="130" as="targetPoint" />
          </mxGeometry>
        </mxCell>
        <mxCell id="Npw1RuFwo9IliVPyghso-65" value="" style="endArrow=classic;html=1;rounded=0;strokeColor=#E07A5F;fontColor=#393C56;fillColor=#F2CC8F;entryX=0.978;entryY=0.589;entryDx=0;entryDy=0;entryPerimeter=0;" parent="1" target="Npw1RuFwo9IliVPyghso-14" edge="1">
          <mxGeometry width="50" height="50" relative="1" as="geometry">
            <mxPoint x="280" y="103" as="sourcePoint" />
            <mxPoint x="450" y="200" as="targetPoint" />
          </mxGeometry>
        </mxCell>
        <mxCell id="Npw1RuFwo9IliVPyghso-69" value="Blockchain environment" style="text;html=1;align=center;verticalAlign=middle;resizable=0;points=[];autosize=1;strokeColor=none;fillColor=none;fontColor=#393C56;fontStyle=1" parent="1" vertex="1">
          <mxGeometry x="340" y="-2" width="160" height="30" as="geometry" />
        </mxCell>
        <mxCell id="tVTisNSIiJWV0kx1MQIW-1" value="" style="strokeWidth=2;html=1;shape=mxgraph.flowchart.delay;whiteSpace=wrap;strokeColor=#E07A5F;fontColor=#393C56;fillColor=none;" parent="1" vertex="1">
          <mxGeometry x="490" y="265" width="220" height="170" as="geometry" />
        </mxCell>
      </root>
    </mxGraphModel>
  </diagram>
</mxfile>
